<?xml version="1.0" encoding="UTF-8"?>
<svg xmlns="http://www.w3.org/2000/svg" xmlns:xlink="http://www.w3.org/1999/xlink" version="1.1" id="Layer_1" x="0px" y="0px" width="100%" viewBox="0 0 853 1280" enable-background="new 0 0 853 1280" xml:space="preserve" style="background: transparent;">

<path fill="#0C3A47" opacity="1.000000" stroke="none" d=" M735.134155,543.571045   C734.434509,534.079651 734.434387,534.046326 743.810181,534.017822   C756.277954,533.979919 768.768372,533.531921 781.207153,534.130676   C793.095459,534.702942 804.798828,537.258850 815.526489,542.594360   C829.422485,549.505737 837.672241,567.780151 835.350037,583.692200   C832.335022,604.351501 822.175964,621.321533 809.703125,637.513000   C802.540955,646.810669 793.840576,654.101746 784.855347,661.322144   C782.744934,663.018066 780.683350,665.231201 780.156433,668.218506   C778.156433,679.557495 773.879395,690.248413 768.673828,700.275146   C764.226196,708.841919 757.140015,715.926880 749.118347,721.648926   C747.712463,722.651733 746.801392,723.302490 747.229309,725.096436   C750.099304,737.127625 744.210754,746.147461 736.311829,753.820007   C727.407898,762.468811 717.741394,770.376038 707.282104,777.121277   C705.637634,778.181702 705.110107,782.501038 702.118469,780.177490   C699.582397,778.207764 702.332153,775.779236 702.670898,773.503235   C703.768799,766.127197 704.505249,758.682129 705.005371,751.238403   C705.282288,747.117126 701.418030,746.489868 698.630432,745.486328   C696.164185,744.598511 693.690613,743.367371 691.105225,746.482910   C685.424622,753.328369 678.401978,758.557678 670.583984,763.035583   C665.822876,765.762634 660.676270,767.350037 655.973938,769.967590   C654.142334,770.987183 652.504333,771.316772 650.893982,770.175232   C647.667542,767.887939 645.584534,769.112671 642.297363,770.993469   C632.584351,776.550598 623.120605,782.574036 612.879517,787.274109   C602.851501,791.876465 593.608093,798.080078 583.476196,802.588501   C575.807434,806.000854 568.459167,810.135254 560.780762,813.523438   C544.842163,820.556519 528.911743,827.680481 512.350525,833.130859   C501.373383,836.743591 490.597809,840.908997 479.549438,844.371338   C467.259186,848.222961 455.127991,852.738281 442.682007,856.068909   C427.733704,860.069397 412.806671,864.169556 397.637268,867.416199   C390.563599,868.930115 383.192688,869.567200 376.396271,872.059998   C368.440674,874.977966 360.019073,875.035034 351.960510,877.052124   C337.400482,880.696594 322.575348,882.890625 307.833740,885.571411   C294.304504,888.031677 280.589478,888.505554 266.997284,890.132385   C244.429474,892.833496 221.775238,893.850769 199.113617,894.742859   C181.155792,895.449829 163.195923,894.609558 145.266144,893.267395   C131.421402,892.231079 117.765686,889.618591 104.097679,887.533386   C92.288689,885.731934 80.636276,882.072205 69.281708,877.684875   C61.460659,874.662842 53.964600,871.366028 47.089306,866.631165   C37.247528,859.853271 29.517967,851.082642 24.407030,840.372803   C19.091888,829.235107 18.326960,817.221741 21.214878,805.340576   C24.266806,792.784607 29.587681,781.100464 36.330727,769.966125   C43.828697,757.585327 52.893505,746.451538 62.373756,735.676270   C69.663368,727.390869 77.296371,719.331787 85.731750,712.139282   C87.973267,710.227905 90.062134,710.355042 90.964920,713.627197   C91.980820,717.309204 92.996513,720.997131 93.820923,724.724731   C94.799072,729.147644 90.950455,731.616882 88.609665,733.593506   C82.422295,738.818420 77.445618,745.062866 71.955353,750.871582   C62.407833,760.972717 55.038792,772.578369 48.625828,784.818970   C45.543549,790.702209 43.160862,796.934143 42.174046,803.503723   C41.726994,806.479980 40.046909,808.911377 39.886963,812.057800   C39.088081,827.773376 47.768055,838.314697 59.135071,846.951782   C69.773148,855.034973 82.112495,859.583557 95.170113,862.873169   C111.516563,866.991272 128.016739,870.078613 144.700150,871.726624   C159.334991,873.172180 174.086716,875.663696 188.820923,873.842773   C214.151749,870.712402 239.751617,872.587097 265.053589,869.161072   C278.794434,867.300537 292.842163,867.080383 306.362457,864.524109   C318.479706,862.233154 330.810272,861.143311 342.830536,858.059021   C354.629883,855.031433 366.870026,853.759827 378.752655,851.009033   C394.699036,847.317322 410.750214,844.094788 426.514069,839.505737   C433.746765,837.400269 441.300751,835.964600 448.535675,833.754639   C465.712036,828.507935 483.215668,824.237244 499.672882,816.730286   C504.566986,814.497925 509.839844,812.954102 514.929993,811.140625   C530.559509,805.572021 545.665894,798.909058 560.641907,791.823730   C571.479309,786.696472 582.386230,781.647644 593.237061,776.587524   C600.193909,773.343262 606.930481,768.971008 613.856567,765.271667   C619.085327,762.479004 624.354797,759.741272 629.737549,757.264771   C634.598999,755.028137 636.079285,750.181335 638.263733,746.176208   C644.769287,734.248718 653.069885,723.956055 664.056641,716.028687   C668.367493,712.918274 667.290649,708.916321 666.699280,705.232910   C666.154114,701.837402 662.847656,700.963440 659.641846,700.946350   C654.142700,700.917053 648.643188,700.954773 643.143860,700.956482   C641.977478,700.956848 640.781738,701.082336 639.650879,700.872742   C637.245056,700.426819 634.284302,699.599976 633.449768,697.650940   C632.470032,695.362549 635.240356,693.854858 636.986694,692.289490   C645.374451,684.771301 654.679565,678.646606 664.239624,672.703857   C672.119507,667.805664 680.057922,665.079651 689.251343,666.039307   C690.077332,666.125549 691.231140,665.758423 691.698486,666.185913   C697.781128,671.750000 701.637817,666.053833 705.560669,663.144531   C722.572205,650.528748 741.319458,643.234314 762.691711,644.034912   C766.967102,644.195068 769.642029,641.935547 772.372009,639.766602   C785.113708,629.643188 796.270691,617.896301 805.045532,604.212524   C810.827271,595.196350 815.322266,585.276062 810.196533,574.253479   C806.320984,565.919373 799.055298,560.888794 791.035706,557.177917   C779.675537,551.921387 767.357849,551.505127 755.101868,550.911865   C749.486755,550.640015 743.781921,551.867676 737.833923,549.814575   C735.413147,548.230042 734.962830,546.175171 735.134155,543.571045  z"/>
<path fill="#EB931D" opacity="1.000000" stroke="none" d=" M317.718231,490.475769   C324.494690,485.475311 332.219360,483.600250 339.622192,481.182007   C353.797882,476.551270 368.292114,473.329376 383.012054,470.560852   C404.108856,466.592926 425.202209,466.883820 446.384827,466.976044   C456.192047,467.018738 466.110352,467.056885 475.685089,469.190857   C488.415070,472.028076 501.218201,474.552368 513.441650,479.626770   C521.653503,483.035767 529.848633,486.277679 537.524353,490.808990   C545.438538,495.481201 552.675232,500.871002 559.140869,507.497803   C565.095337,513.600647 570.693787,519.830750 575.239014,527.094482   C577.170532,530.181152 578.874023,533.496094 580.130371,536.680908   C584.250183,547.125000 589.495117,557.643433 583.750671,569.391846   C581.017700,574.981140 576.622498,579.019958 571.661499,581.975159   C566.538208,585.027039 561.047852,587.622925 555.313293,589.770020   C547.772766,592.593445 540.018250,594.997803 532.314697,596.478760   C519.193237,599.001221 506.229645,602.203369 493.236084,605.167236   C483.693970,607.343750 474.037018,608.190552 464.451141,609.689514   C461.929962,610.083801 460.271118,612.203735 457.326843,611.855957   C451.490326,609.973145 445.695526,610.949402 440.188049,609.588013   C436.457611,608.665894 432.635742,607.981506 429.534546,605.555115   C424.589813,601.686279 425.061371,597.131470 430.976135,595.172119   C439.974976,592.190979 449.229340,589.841919 458.505371,588.049194   C471.752319,585.489075 484.702850,581.686646 497.917145,579.172791   C512.741455,576.352661 526.753357,571.135315 540.967773,566.439758   C544.137146,565.392822 547.103943,563.909851 548.977661,562.895325   C537.143982,566.742310 524.096313,570.806824 510.678741,573.283142   C497.261993,575.759399 483.656006,577.141357 470.144531,579.020874   C447.150452,582.219421 424.064911,583.659973 400.963684,583.444092   C380.665649,583.254395 360.455383,581.084656 341.481323,572.404419   C335.623596,569.724670 329.435211,567.760193 323.674683,564.699280   C313.681274,559.389099 305.920074,551.741150 299.856537,542.412537   C296.175049,536.748657 296.636963,530.250916 298.512115,524.034180   C300.048920,518.939148 302.247040,514.067871 305.002075,509.464661   C308.852356,503.031311 313.190857,496.928192 317.718231,490.475769  z"/>
<path fill="#0E3B48" opacity="1.000000" stroke="none" d=" M607.632690,545.335693   C597.811890,534.467834 592.861023,521.797791 590.016479,507.934082   C588.039246,498.297668 586.062073,488.653687 583.366943,479.120728   C580.315125,468.326050 575.888611,458.202972 570.796387,448.451813   C564.463623,436.325043 556.010925,425.589783 546.651062,415.420441   C534.270264,401.968842 518.838257,393.269257 502.884430,385.518005   C496.229431,382.284668 488.930023,379.784332 481.591339,377.651306   C472.753021,375.082367 463.900574,372.294098 454.896362,370.934235   C439.333313,368.583771 423.657410,366.856628 407.760620,368.689575   C400.538513,369.522278 393.118774,369.257629 385.950195,370.604584   C375.230865,372.618713 364.649323,375.247711 354.108490,378.179108   C340.834259,381.870636 328.593353,387.803253 316.553131,394.063904   C309.094696,397.942139 302.715149,403.732300 296.312927,409.458038   C284.777649,419.774414 276.127045,432.077423 267.368683,444.598572   C260.113586,454.970642 255.209869,466.241272 251.160721,477.952637   C249.233673,483.526276 248.650055,489.630798 247.978485,495.553833   C247.277298,501.738129 245.207535,507.751251 245.800354,514.119324   C245.966934,515.908630 244.861969,517.551453 243.203537,518.693604   C233.309067,525.507935 226.943680,535.266174 220.974411,545.372498   C218.519577,549.528564 216.852539,553.986816 215.077621,558.443604   C214.001999,561.144470 212.925522,563.477112 209.511398,559.033081   C201.689377,548.851318 199.271362,537.294006 197.933273,525.071533   C196.602386,512.914917 196.621307,500.797546 199.154205,488.872406   C201.192459,479.276093 203.407974,469.727570 208.714645,461.050995   C212.688477,454.553650 216.527237,448.085480 221.705002,442.462952   C222.682297,441.401672 223.477402,439.968567 223.836075,438.573273   C227.479828,424.398346 233.655991,411.200928 240.888840,398.679596   C245.239258,391.148254 250.899002,384.216827 256.501740,377.357574   C261.359467,371.410492 266.575043,365.825592 271.767151,360.237579   C276.591095,355.045715 282.050476,350.394135 287.546082,345.890289   C293.146454,341.300568 298.937317,336.880615 305.006531,332.944061   C310.535492,329.357941 316.479767,326.382385 322.368622,323.388947   C328.830841,320.104004 335.265533,316.643677 342.029877,314.106812   C349.598358,311.268402 357.673279,309.784790 365.254120,306.973602   C374.210083,303.652557 383.801331,303.442352 392.851135,300.413605   C398.032501,298.679504 404.043396,299.123199 409.681763,299.113190   C424.987915,299.085968 440.415344,297.654694 455.554260,300.247101   C465.380493,301.929779 475.307556,303.311493 484.987640,306.324249   C490.953796,308.181061 496.823700,310.367096 502.808990,312.174957   C516.391296,316.277527 528.682617,322.973755 540.996887,329.971741   C551.821228,336.122986 561.223938,343.966858 570.933777,351.445984   C576.231201,355.526398 580.499817,361.010162 584.953674,366.104645   C595.325378,377.968079 604.141846,390.853943 611.356812,404.945618   C614.218811,410.535278 616.716797,416.202026 618.877075,422.033997   C619.639099,424.091370 621.156006,424.326660 622.636047,424.772491   C636.248474,428.873169 643.684631,438.944550 648.589905,451.471130   C656.078125,470.593567 658.823181,490.489349 657.926208,510.911438   C657.418213,522.476440 656.000793,533.797974 648.233215,543.312317   C645.614136,546.520264 642.454468,549.510071 638.903625,550.432739   C632.551636,552.083435 632.554382,556.678589 631.467896,561.434204   C628.980896,572.319946 626.213013,583.161926 619.548950,592.469543   C618.473206,593.971985 617.112061,594.354492 615.802917,592.922363   C612.314697,589.106323 608.234680,586.197327 603.520447,584.063477   C600.234070,582.575989 601.161682,579.683777 602.497314,577.712036   C604.093933,575.354980 605.097717,572.740540 606.906860,570.227783   C608.496887,571.148682 607.974121,572.791321 608.527283,574.239929   C611.981873,568.047852 614.506775,561.629761 616.700867,555.035156   C617.767395,551.829529 616.971130,550.038940 613.992249,548.771484   C611.876892,547.871460 609.667419,547.104004 607.632690,545.335693  z"/>
<path fill="#E06D16" opacity="1.000000" stroke="none" d=" M317.643860,490.187195   C318.509338,492.994720 316.839661,495.023163 315.342590,496.950592   C309.610107,504.331268 304.966614,512.334961 301.196564,520.862915   C296.700714,531.032593 298.848633,540.981995 306.644928,549.127502   C316.134766,559.042419 327.278503,565.861511 340.356323,570.165771   C348.190613,572.744385 355.811768,576.213196 363.817566,578.175781   C370.521057,579.819153 377.539642,580.401001 384.458435,580.885132   C392.898193,581.475647 401.341431,582.634949 409.831482,581.967529   C429.316132,580.435669 448.860626,580.400208 468.317535,577.492004   C481.876526,575.465393 495.610168,574.175964 509.152802,571.860779   C517.296936,570.468445 525.397339,568.556091 533.266235,565.884583   C540.533142,563.417358 548.121399,562.090698 555.401550,559.440369   C552.559387,563.199951 548.701050,565.446533 544.591003,566.899841   C533.344604,570.876343 522.019531,574.652893 510.616669,578.153809   C505.732513,579.653320 500.503662,579.999512 495.561371,581.346558   C482.614655,584.875366 469.472717,587.444946 456.335205,590.110474   C448.084686,591.784363 439.996979,594.287170 431.880615,596.575439   C430.103241,597.076599 427.150726,597.152222 427.359344,599.628113   C427.579163,602.236694 429.433899,604.488220 432.134308,605.536560   C438.722717,608.094055 445.565796,609.254333 452.623779,608.955322   C454.609070,608.871277 456.220459,609.031006 456.783997,611.576355   C454.926849,613.358948 452.461517,612.890747 450.207916,613.233887   C434.171844,615.675659 418.038208,617.336121 401.941101,619.283020   C381.998230,621.695129 361.892883,621.966553 342.031372,624.424805   C325.236908,626.503418 308.448792,626.608826 291.869080,625.355103   C273.414276,623.959656 254.479126,622.152405 237.832474,612.633667   C231.086960,608.776611 225.912674,603.455505 225.799881,594.267944   C225.621017,579.698730 231.083115,567.329346 238.027679,555.082336   C244.614044,543.466919 253.717239,534.015198 263.257782,525.099060   C269.742859,519.038513 276.823761,513.501831 284.355438,508.476837   C293.072998,502.660736 302.245209,497.741272 311.193634,492.393860   C313.012512,491.306915 315.235199,490.895630 317.643860,490.187195  z"/>
<path fill="#D5442A" opacity="1.000000" stroke="none" d=" M263.480469,920.456665   C276.815643,927.395813 289.826447,934.517639 303.602356,939.831116   C315.922699,944.583191 328.571747,948.489258 341.324219,952.112000   C382.676880,963.859558 424.692749,963.444519 466.698883,958.506042   C486.365875,956.193909 505.810425,951.065308 524.508057,944.072937   C538.345886,938.897888 552.189880,933.634094 565.164185,926.433289   C579.338867,918.566162 592.976501,909.932983 605.994507,900.185425   C616.424255,892.376038 626.582764,884.322998 635.964050,875.324341   C647.117126,864.626099 657.888428,853.546082 667.248718,841.191284   C671.994873,834.926636 676.898743,828.770996 681.404175,822.336975   C688.789490,811.790344 696.117432,801.127014 701.512817,789.429749   C703.490967,785.140930 706.961975,784.543945 710.174133,783.464783   C714.851929,781.893311 719.751892,781.090576 723.989014,778.257874   C724.873718,777.666443 726.410217,776.496094 727.555298,777.977356   C728.413879,779.088013 728.241882,780.574097 727.689148,781.808167   C725.736511,786.167480 723.846680,790.566956 721.638306,794.797241   C716.238892,805.140076 711.067261,815.597778 704.853210,825.514465   C699.377686,834.252563 693.547607,842.701843 687.311035,850.911926   C679.581787,861.086975 670.806885,870.324341 662.100342,879.611389   C654.056030,888.192200 645.123047,895.868286 636.187317,903.516174   C624.963867,913.122070 613.113342,921.968201 600.538818,929.618896   C590.937073,935.460938 581.311707,941.331848 571.190247,946.420044   C559.305237,952.394775 547.044434,957.394104 534.887207,962.670288   C529.783264,964.885315 524.277222,966.222351 518.960571,967.832214   C500.504395,973.420715 481.745697,977.548035 462.498505,979.975647   C442.795258,982.460693 423.148926,983.075317 403.382416,982.741455   C386.400269,982.454651 369.793732,979.001099 353.126434,976.407471   C342.687592,974.783142 332.486725,971.318054 322.352417,968.128174   C309.966339,964.229492 297.496033,960.445007 285.710022,954.900452   C271.884094,948.396362 258.361542,941.364624 245.457047,933.069397   C231.379227,924.019836 218.193298,913.838501 205.091476,903.502930   C204.227692,902.821533 202.614288,902.400757 202.996719,901.028931   C203.476395,899.308167 205.229324,899.988647 206.433258,899.983887   C214.902451,899.950562 223.339523,900.802063 231.853348,900.411255   C234.787170,900.276672 238.090759,903.020142 240.837540,904.989746   C248.196121,910.266296 255.522568,915.573547 263.480469,920.456665  z"/>
<path fill="#D5452A" opacity="1.000000" stroke="none" d=" M94.005722,584.888794   C99.162987,565.032776 103.521759,545.512817 111.568268,526.839172   C118.913872,509.792175 127.430008,493.476196 137.244446,477.917450   C146.007904,464.024811 156.205963,451.043091 167.292206,438.750610   C175.230499,429.948669 183.147308,421.146057 191.799774,413.082581   C206.243820,399.621704 221.228561,386.829498 238.717407,377.267609   C242.259277,375.331116 245.690628,373.069763 249.234909,370.997925   C250.003418,373.200470 248.460129,374.485077 247.381897,375.892120   C240.238464,385.213898 233.919281,395.043793 229.472839,405.946655   C227.699066,410.295959 224.279755,413.235382 220.892990,415.821991   C211.770752,422.789124 203.092743,430.297668 195.185043,438.504608   C184.125092,449.983002 173.911301,462.219238 164.490585,475.189606   C152.248749,492.044067 142.559174,510.254913 133.681442,528.927917   C128.972061,538.833435 125.355133,549.224731 122.034019,559.776672   C117.340919,574.687683 114.619904,589.898132 111.643929,605.145752   C107.211540,627.855469 107.442757,650.695251 108.467445,673.607605   C108.720314,679.261963 108.924881,684.942200 109.643112,690.547546   C111.552834,705.451782 114.788773,720.100586 118.401535,734.685303   C122.896126,752.829895 129.617523,770.123291 137.636047,786.945068   C146.742096,806.048340 157.908279,823.944641 170.453873,840.932983   C174.943100,847.011963 179.766632,852.945312 185.321960,858.210938   C187.665482,860.432190 189.413757,863.281494 191.449738,865.867065   C190.144058,867.695312 188.341599,866.947693 186.806931,867.016357   C180.510925,867.298218 174.241837,866.409790 167.885910,867.187500   C163.669144,867.703430 162.189713,862.960510 160.025879,860.406738   C145.887985,843.721680 134.361984,825.177368 124.151794,805.939941   C117.446541,793.306335 111.585381,780.194580 106.869293,766.543762   C100.627861,748.477722 96.001587,730.121643 92.555878,711.349365   C91.148689,703.682922 90.023415,696.018311 88.844818,688.330322   C86.955742,676.007751 86.578964,663.680603 86.607895,651.288025   C86.649788,633.341980 88.658043,615.548584 91.440102,597.871338   C92.093643,593.718689 93.205086,589.530457 94.005722,584.888794  z"/>
<path fill="#398229" opacity="1.000000" stroke="none" d=" M386.430664,667.568726   C378.406647,665.623413 370.746063,663.531433 363.092438,661.414429   C357.951111,659.992310 353.428833,662.721130 348.641235,663.589661   C340.326263,665.098267 334.773254,671.372253 328.076752,675.728271   C322.256378,679.514282 315.952423,681.399170 308.444275,680.569031   C296.619873,679.261658 287.958862,671.567078 277.685730,667.222961   C272.912964,665.204773 268.508545,665.300354 263.852814,666.971191   C254.270920,670.409912 244.943741,674.405090 234.318481,674.147644   C221.174561,673.829224 211.873062,660.727112 218.727356,647.055969   C221.031113,642.460999 223.574722,638.096741 227.977463,635.019104   C233.149170,631.403931 238.406693,631.118225 244.009583,634.421692   C245.409210,635.246948 247.050919,635.735107 248.640564,636.152832   C260.134888,639.173096 271.848785,640.766296 283.602417,642.520325   C299.739868,644.928467 315.802521,644.499451 331.800140,643.671997   C347.464264,642.861816 363.170166,641.364014 378.761566,639.575378   C389.945221,638.292480 401.085693,636.883728 412.296295,637.149780   C421.499939,637.368225 430.612213,636.453857 439.456512,634.698181   C452.666046,632.075989 466.094421,631.860474 479.252777,629.652588   C484.999115,628.688354 490.897003,627.235046 496.657959,625.637085   C509.843994,621.979492 523.189209,618.723877 536.652771,616.336792   C541.058350,615.555664 545.706116,615.030945 549.847900,613.665527   C555.482422,611.808044 560.940063,608.860168 565.846741,605.472046   C574.281067,599.648010 582.926636,596.030823 593.695679,599.180298   C596.158325,601.561218 595.445984,604.030640 594.425354,606.320251   C591.274780,613.387695 585.883606,617.583618 578.114563,618.588623   C570.550476,619.567139 562.835938,619.552917 555.531006,622.247131   C553.012756,623.175842 550.470154,624.029724 548.449890,625.811462   C541.845032,631.636475 534.380737,636.352234 528.022156,642.553040   C517.508911,652.805481 501.149597,654.430481 486.085846,647.408813   C483.060211,645.998413 480.031067,644.689331 476.249664,644.442749   C459.713043,641.714172 445.166046,645.922058 432.539307,655.768066   C426.496429,660.480164 420.332458,662.858521 412.897003,662.652039   C407.238617,662.494812 401.617218,662.784607 396.012115,663.722656   C392.626038,664.289429 389.905518,666.283752 386.430664,667.568726  z"/>
<path fill="#DF6D16" opacity="1.000000" stroke="none" d=" M468.750549,820.641602   C467.249298,823.615601 464.287781,823.270996 461.811554,823.848633   C446.975250,827.309265 431.851868,828.660889 416.720245,830.171509   C382.434692,833.594238 348.073730,834.939575 313.643707,834.847778   C303.167511,834.819885 292.646149,834.476013 282.428528,831.918396   C267.883179,828.277649 256.344604,820.399536 248.803696,807.086060   C243.966919,798.546814 242.235779,789.191589 241.540878,779.658569   C241.288239,776.192932 242.555130,772.560120 243.446030,769.084961   C244.187500,766.192566 246.477661,766.496338 247.990112,768.091675   C257.889832,778.534058 270.723083,781.129639 284.244659,782.036926   C315.548584,784.137146 346.764893,782.095093 377.997620,780.239685   C389.729248,779.542847 401.317017,777.171143 413.524689,777.624451   C414.619232,779.875061 412.720306,780.298340 411.679321,781.117371   C404.454468,786.801392 401.977356,797.244019 412.206360,804.439270   C426.935455,814.800049 442.736786,820.929993 461.068176,818.738403   C463.719147,818.421448 466.396576,818.217651 468.750549,820.641602  z"/>
<path fill="#E9931D" opacity="1.000000" stroke="none" d=" M469.244110,821.081665   C464.868103,819.143921 460.809814,820.759827 456.726898,820.898804   C443.860382,821.336731 431.936798,817.811646 420.632141,811.817810   C415.932312,809.325928 411.734558,806.158936 407.683319,802.793091   C400.047821,796.449341 403.611938,782.254456 413.813202,778.074585   C418.592560,776.192688 423.494019,776.832214 428.271057,776.299988   C445.306946,774.402100 462.433685,773.157471 479.378265,770.662109   C489.500854,769.171509 499.746155,768.114563 509.723022,765.906250   C520.039368,763.622803 530.704163,764.245911 540.820374,761.719299   C545.983398,760.429810 550.807373,757.347778 556.230347,756.189392   C558.785095,755.643677 561.233398,754.619080 563.761841,753.928101   C575.586304,750.696960 587.007751,746.516357 597.130371,739.421326   C599.145081,738.009155 600.769592,736.034851 602.549927,734.295044   C604.430054,732.457886 605.695740,732.665283 607.263977,734.957397   C611.875977,741.698364 612.670227,749.196838 611.831726,756.943542   C611.595764,759.123474 610.332642,760.914551 607.752319,762.325439   C598.502441,767.383057 588.672546,771.130615 579.222778,775.712830   C571.841309,779.292175 564.215942,782.398071 556.584045,785.424683   C542.905518,790.849243 529.821777,797.613647 516.263977,803.254639   C507.135651,807.052734 498.101654,811.132141 488.803345,814.525024   C482.425171,816.852356 475.972534,818.975586 469.244110,821.081665  z"/>
<path fill="#DF7F0B" opacity="1.000000" stroke="none" d=" M382.328064,706.725159   C373.679901,706.944031 365.659149,704.232239 357.318024,704.295715   C355.895721,704.306519 354.420471,703.887573 352.950775,704.206970   C352.841156,704.230774 352.772156,704.441650 352.684296,704.565552   C352.842041,704.513550 353.015930,704.487488 353.152954,704.402222   C353.290466,704.316772 353.514954,704.122498 353.490112,704.060669   C352.814148,702.376892 351.301575,703.179077 350.213959,703.129395   C336.398834,702.498047 322.537811,701.983215 308.760803,702.938110   C290.621216,704.195251 272.748138,707.561768 255.365570,713.007996   C251.768112,714.135132 248.260376,715.475159 244.524734,716.098694   C236.692978,717.406128 232.460083,712.686096 231.148209,706.114563   C229.566849,698.193115 233.660828,692.790527 240.503952,690.721191   C246.062683,689.040222 251.773682,687.927368 257.213654,685.519470   C267.685760,680.884460 278.181000,679.725220 288.848175,686.438477   C301.065460,694.127258 314.402740,697.576721 328.600494,691.856384   C333.309753,689.958923 337.914520,687.615662 341.747681,684.138611   C349.868408,676.772461 359.606018,675.943237 369.703400,677.606201   C378.990173,679.135620 388.145813,681.443542 397.399231,683.197449   C414.045807,686.352417 428.725647,681.302551 442.128540,671.803833   C453.111359,664.020264 465.028412,661.827454 477.928589,665.230347   C482.354919,666.398071 486.415253,668.735718 490.682159,670.432068   C508.781158,677.627441 524.609924,673.443115 538.480164,661.205627   C545.356384,655.138794 552.170593,652.978394 561.130066,654.540710   C570.591431,656.190613 580.229187,656.955078 589.926636,656.025574   C600.889282,654.974792 609.374939,666.344666 605.914307,677.156982   C605.185425,679.434143 598.727417,681.799194 596.157227,680.343018   C597.068298,677.132935 595.252625,675.561157 593.165039,674.404419   C578.188965,666.105835 562.443665,663.955750 546.015869,669.187378   C542.402954,670.338013 539.471802,673.141724 536.400330,675.374268   C522.567993,685.428589 506.884460,687.912964 490.740845,684.919556   C472.782654,681.589783 455.786041,683.570068 438.642395,689.050415   C426.139954,693.047119 413.241547,695.795044 400.597260,699.395081   C397.187347,700.365906 394.028961,701.757874 391.044861,703.611755   C388.467163,705.213074 385.751404,706.393250 382.328064,706.725159  z"/>
<path fill="#D4452A" opacity="1.000000" stroke="none" d=" M734.891174,543.042053   C735.878723,545.194641 736.500610,547.158264 737.267212,549.378784   C742.461853,563.666504 745.110168,578.267029 748.265869,592.790039   C750.502014,603.081116 751.184631,613.394531 752.098694,623.752075   C752.358215,626.693848 754.345886,629.119080 753.824097,632.379456   C753.412964,634.948730 753.182556,636.336243 750.121521,636.065796   C745.293823,635.639282 740.437012,635.923096 735.778320,637.370483   C733.390320,638.112366 732.827759,637.179443 732.662903,635.098389   C732.203064,629.294189 731.870850,623.468567 731.108826,617.701599   C728.746521,599.823364 726.015991,581.955933 720.897766,564.661072   C717.305237,552.521729 712.967773,540.482239 707.673218,528.992554   C696.877747,505.565338 684.375122,483.053894 667.566833,463.231750   C661.824158,456.459351 656.042908,449.716644 650.442444,442.827728   C646.515686,437.997498 643.877502,432.214325 638.632141,428.317139   C636.370667,426.636932 634.185120,424.707825 631.651917,423.709229   C626.905579,421.838257 623.348938,418.939606 621.996033,414.041138   C620.350037,408.081543 617.378113,402.738190 614.737000,397.256226   C611.508789,390.555634 607.002991,384.601349 602.839783,378.456329   C602.284058,377.636108 600.707458,376.660858 602.172729,375.636688   C603.093628,374.993011 604.018677,375.615509 605.246582,376.534302   C612.049866,381.624756 618.906738,386.631012 625.630615,391.847656   C636.187134,400.037750 646.169189,408.856171 655.521667,418.338074   C663.813110,426.744110 671.804565,435.486542 679.402039,444.522980   C684.894165,451.055298 689.473938,458.349457 694.549988,465.238007   C702.598938,476.161102 709.750488,487.676819 716.323242,499.506165   C720.653931,507.300415 723.894226,515.695190 727.751465,523.759583   C730.686462,529.895813 732.518982,536.399902 734.891174,543.042053  z"/>
<path fill="#E9931D" opacity="1.000000" stroke="none" d=" M382.213013,707.033936   C387.497894,703.509705 392.901428,699.818665 399.224884,698.041809   C413.077484,694.149170 426.924530,690.218384 440.867249,686.670166   C452.065277,683.820374 463.138550,679.668518 475.025665,681.233582   C484.874847,682.530273 494.647247,684.083923 504.662659,684.126587   C516.316589,684.176208 526.490356,680.384521 535.649170,673.736267   C551.513672,662.220581 568.124146,662.187805 585.580383,669.370972   C589.710571,671.070496 593.751465,672.469910 597.410522,675.359375   C600.930908,678.139221 599.893005,678.864502 596.349243,679.984375   C591.008240,680.047729 587.062805,677.064819 582.647827,675.440491   C580.037659,674.480164 577.182373,674.536316 574.502258,674.200562   C553.831543,671.610596 536.061951,677.595581 521.429871,692.752014   C511.509613,703.027710 502.634857,714.118652 494.814331,726.015503   C492.539124,729.476624 491.541504,733.792480 490.049927,737.751038   C486.458099,747.283630 478.946716,751.263367 468.609100,749.789734   C460.859222,748.684937 455.746674,743.387024 450.229462,738.960022   C436.979248,728.328186 422.322906,720.631836 406.438995,714.689270   C399.212280,711.985535 391.624268,710.638245 384.183350,707.423706   C383.643188,707.288391 383.475220,707.342712 383.107117,707.223511   C382.907013,707.050049 382.433807,707.127258 382.213013,707.033936  z"/>
<path fill="#78941E" opacity="1.000000" stroke="none" d=" M475.759216,643.227905   C481.512543,642.600708 485.971802,645.827820 490.901886,647.501099   C506.427490,652.770508 519.274902,649.416443 531.247314,637.743958   C539.966064,629.243591 549.253845,620.324890 562.508972,618.675171   C567.264832,618.083313 572.022156,617.362305 576.800171,617.119507   C586.481262,616.627502 593.592773,609.773865 594.093445,599.714783   C594.574585,599.372864 595.047729,599.423523 596.071655,599.750305   C596.850830,600.075745 597.079102,600.124939 597.633728,600.301514   C598.491455,600.723206 598.986938,601.064148 599.570862,601.768494   C611.102295,607.798950 615.643738,619.837708 608.648499,629.085693   C602.402527,637.342957 593.471985,642.421814 582.413940,641.579529   C575.683411,641.066833 569.062317,640.342651 562.508850,638.017151   C551.744141,634.197205 542.510620,637.570068 535.692383,646.637512   C524.992493,660.867126 510.650909,662.115234 494.956848,658.316406   C491.696533,657.527222 488.761322,655.394714 485.346191,653.702148   C484.467377,653.223877 483.946838,652.885437 483.309540,652.195435   C483.115112,651.952087 483.050964,651.986694 483.041565,651.951538   C480.110168,649.501221 476.659119,647.558044 475.759216,643.227905  z"/>
<path fill="#E38F1C" opacity="1.000000" stroke="none" d=" M660.386780,395.201599   C659.758911,396.239410 659.362976,396.966675 658.870239,397.621002   C657.864197,398.956879 657.819946,401.285797 655.222107,400.988739   C652.573914,400.685944 652.634949,398.431427 651.839966,396.702667   C648.475952,389.386719 648.086426,381.036041 643.468079,374.091125   C640.227905,369.218567 635.952759,366.361084 630.517578,365.010651   C626.376099,363.981720 622.208923,363.127625 618.485840,360.897369   C617.263428,360.165131 615.489014,360.046356 615.579224,357.991577   C615.681213,355.668762 617.674316,355.348724 619.132751,355.249542   C624.321838,354.896820 628.917053,352.609253 633.796753,351.265656   C640.998779,349.282623 644.415894,343.843689 646.832092,337.584381   C649.140442,331.604767 651.027283,325.455902 652.912048,319.323853   C653.395691,317.750214 654.238037,317.169312 655.657654,316.967743   C657.194824,316.749481 658.204773,317.354279 658.724121,318.835938   C659.909119,322.216980 661.380676,325.465515 662.085449,329.048920   C663.324097,335.346680 666.526611,340.853607 669.720276,346.358215   C671.309570,349.097717 673.896240,349.827911 676.454407,351.020782   C681.459473,353.354645 686.959595,354.606476 691.530884,357.883545   C692.553223,358.616516 694.251282,358.952209 693.565186,360.758209   C693.080872,362.033020 692.033020,362.697998 690.631409,363.143066   C685.479370,364.778961 680.166504,365.582550 675.116394,367.968597   C668.106140,371.280762 665.065613,377.176575 662.635010,383.602142   C661.307434,387.111694 661.221069,391.090729 660.386780,395.201599  z"/>
<path fill="#882F03" opacity="1.000000" stroke="none" d=" M579.588623,731.042725   C577.101807,733.439880 574.142151,734.712708 570.402649,735.064270   C568.994202,734.983765 568.051270,734.723755 567.532349,733.736023   C566.681213,732.116028 567.186279,729.314331 564.427490,729.324219   C560.472351,729.338379 556.690796,725.760437 552.269714,728.806702   C548.723083,728.370972 549.159058,726.537659 550.434875,724.574768   C551.883362,722.346375 553.647705,720.315430 554.677734,717.830750   C555.060242,716.907959 555.422363,715.805786 554.564270,715.032898   C553.658813,714.217407 552.700195,714.920288 551.854309,715.413269   C550.987061,715.918762 550.238708,716.590698 549.570923,717.336243   C544.154541,723.382996 536.844055,726.730591 530.031311,730.688538   C524.837891,733.705688 521.080566,731.244019 521.614258,725.233704   C521.847351,722.609131 518.954346,721.763245 519.727417,719.118774   C523.116272,712.235779 528.125061,707.082031 533.452087,702.258911   C540.390808,695.976562 548.463196,691.750977 557.632507,689.620667   C561.275635,688.774292 564.981628,688.600769 568.459900,689.570496   C576.464844,691.802429 584.740540,693.111084 592.443420,696.401672   C594.839844,697.425415 597.369141,696.929871 599.845337,696.975342   C601.456360,697.004944 602.859863,697.571411 603.620850,698.919617   C604.437927,700.367249 602.836853,700.807617 602.094543,701.595215   C600.512329,703.274048 600.419617,705.632019 600.204834,707.598999   C599.324158,715.663879 595.388000,721.827698 589.470886,727.050903   C586.891052,729.328064 583.639954,729.970581 580.241455,731.289917   C578.558472,729.235535 580.109192,727.967651 581.280579,726.631836   C583.010010,724.659790 583.901733,722.558289 582.800964,719.863281   C576.485962,724.274231 575.839417,726.472534 579.588623,731.042725  z"/>
<path fill="#7C2303" opacity="1.000000" stroke="none" d=" M361.747620,720.556519   C363.139282,720.541199 364.216797,720.694580 365.621094,720.902832   C366.131897,720.841614 366.315918,720.725525 366.770935,720.791382   C380.430664,722.297119 392.974579,726.751038 405.361420,731.612061   C413.743835,734.901550 422.093506,738.314697 429.506866,743.672607   C434.543121,747.312561 439.929443,750.466797 445.138947,753.869202   C446.137115,754.521057 447.034332,755.460754 446.904541,756.699341   C446.746857,758.204285 445.263733,758.214417 444.181976,758.358154   C440.735413,758.816040 437.277832,759.230835 433.811737,759.494568   C420.816803,760.483398 407.946167,762.770203 394.876892,763.033325   C386.921082,763.193604 378.972992,763.738037 370.560028,764.089355   C367.151276,765.330994 364.042358,764.952698 360.588837,764.934265   C356.634766,762.739075 358.252106,760.572571 360.773163,759.623535   C363.016937,758.778748 364.621368,758.111877 364.823151,755.527771   C364.874817,754.866333 365.541382,754.221497 366.165070,754.242126   C369.784668,754.361633 369.581360,751.409973 370.549927,748.939331   C373.440918,746.789062 376.212402,748.764587 378.882080,748.479187   C373.360535,747.097168 370.916840,741.593933 366.030792,738.744385   C364.649109,737.752319 364.127319,735.708618 362.139343,736.868774   C360.207916,737.995911 358.214386,738.546021 357.164093,735.973999   C356.092987,733.351135 356.366882,730.727356 358.614014,728.643982   C359.355072,727.956909 360.435944,727.757324 361.183655,727.136414   C363.662567,725.077637 360.371887,724.633789 359.890686,723.020020   C359.617035,721.449951 360.588287,721.141785 361.747620,720.556519  z"/>
<path fill="#641703" opacity="1.000000" stroke="none" d=" M332.998657,764.822693   C332.422974,767.235291 330.584961,766.832520 328.979706,766.835510   C315.016754,766.861389 300.950806,767.907837 287.121185,766.552246   C274.656158,765.330627 261.772400,763.509583 251.648666,754.399414   C248.481613,751.549377 246.028564,748.231201 244.766190,744.356445   C243.575180,740.700867 239.357239,737.658813 241.258453,733.449768   C243.294067,728.943359 248.474594,731.648865 251.897705,729.907471   C260.820648,725.367981 270.963837,724.864990 280.259644,721.514893   C281.464081,721.080872 282.875702,721.221741 284.611816,721.154419   C286.499176,722.601257 287.893860,723.675842 290.272797,723.311401   C296.710785,722.325317 299.845093,725.051025 299.947052,731.685852   C300.021759,736.550842 303.375519,740.233765 304.540588,744.938599   C306.909058,746.355896 307.603180,748.699280 309.060944,750.442749   C311.221680,753.026917 313.361328,754.550049 316.244080,751.328552   C317.221436,750.236511 318.445953,749.358582 320.376312,749.364563   C321.973358,749.904663 322.744019,751.043457 324.081360,751.966919   C325.187836,752.795532 326.038483,753.430115 327.238586,754.127686   C328.263245,754.741943 328.902283,755.367981 330.069305,755.774658   C331.865601,756.859924 333.205536,758.041504 332.213715,759.927734   C331.260193,761.741028 329.419006,762.159912 327.480530,761.805176   C325.693451,761.478149 323.951019,760.918030 322.204346,760.437866   C319.908112,759.806519 318.127808,760.108582 316.758179,762.191345   C321.948090,764.127258 327.662476,762.394409 332.998657,764.822693  z"/>
<path fill="#721D03" opacity="1.000000" stroke="none" d=" M333.640289,765.136719   C328.586792,764.986084 323.960388,764.549194 319.378052,764.830322   C316.119171,765.030212 316.023438,761.419189 312.941925,761.004639   C317.378601,761.554016 318.613617,760.265747 316.372589,756.103394   C319.611359,760.174194 324.480438,758.134277 327.824402,760.633240   C328.922852,761.454102 330.610474,760.607117 331.287750,759.452332   C332.126465,758.022217 330.801270,757.475220 329.328094,757.020020   C327.689728,754.333069 329.755981,754.306335 331.332947,754.058350   C332.929230,753.807373 334.597321,754.369690 336.472473,753.638245   C332.896240,750.304382 327.308258,750.265991 324.493591,745.587830   C323.563354,744.434631 322.928040,742.921509 321.831055,743.097717   C316.419220,743.966797 310.855896,743.915649 305.282104,745.842285   C301.737457,746.215759 298.936066,746.097290 301.569336,741.667419   C301.799774,741.279785 301.920044,740.363770 301.764343,740.276428   C296.413116,737.275208 299.437317,731.461731 297.431854,727.265503   C295.897064,724.054199 294.090698,723.634460 291.161957,724.425598   C288.558411,725.128845 285.754791,726.060059 285.038696,721.584229   C285.778564,721.143982 286.524902,721.075500 287.646301,721.027039   C290.819000,720.743530 293.680695,721.496765 296.723511,720.326965   C305.336945,719.160156 313.686707,718.679932 322.539459,719.032349   C326.926270,720.278381 330.730804,722.052429 335.026398,721.311279   C336.447693,721.066101 338.111053,721.524292 338.486847,722.770142   C340.377014,729.036255 346.781006,731.063171 350.598541,735.964722   C351.056763,736.366516 351.222290,736.550598 351.556885,737.070312   C352.234772,739.386780 351.460968,740.862854 349.581665,742.190918   C348.428284,742.524170 347.577698,742.423889 346.979767,741.877808   C343.416718,738.623901 341.039917,739.979553 339.077545,744.067627   C338.171570,748.864380 342.158142,747.700012 344.585388,748.885376   C345.358154,749.094727 345.788544,749.249756 346.538055,749.534790   C348.513733,750.358032 350.609161,750.908264 350.323395,753.188782   C350.082336,755.112488 348.022644,754.571777 346.708374,755.044128   C344.564880,755.814636 343.200562,756.876221 346.187286,758.431824   C348.319427,759.542297 347.762939,761.432861 347.733582,763.538940   C347.621521,764.111084 347.544678,764.333374 347.230652,764.817017   C342.691071,765.104675 338.388672,765.131104 333.640289,765.136719  z"/>
<path fill="#E18E1B" opacity="1.000000" stroke="none" d=" M182.818604,775.273438   C181.376373,777.676208 180.857300,780.731384 177.237457,779.962341   C173.946487,779.263184 174.268845,776.435486 173.685013,774.181580   C172.789200,770.723328 171.887695,767.253906 171.267883,763.739929   C170.432404,759.003296 169.294083,754.855225 163.697174,753.426270   C160.811569,752.689514 159.163132,750.077209 159.104263,746.953308   C159.044601,743.788086 160.910202,741.695251 163.704178,740.681641   C168.284073,739.020081 169.918579,735.554382 170.276077,731.085938   C170.620560,726.780090 170.697235,722.413757 171.537292,718.202820   C171.963882,716.064514 172.735382,713.153198 175.642410,712.828857   C176.684586,712.712585 178.712967,712.113403 179.271988,714.302002   C179.910141,716.800415 181.311005,719.265259 181.289764,721.735291   C181.252792,726.035583 182.951401,729.813049 183.888840,733.810852   C184.674683,737.162109 187.014526,739.295288 190.186218,740.307190   C193.594589,741.394592 195.676620,744.155701 195.519348,747.052124   C195.356781,750.046692 194.141830,753.359497 190.019440,754.456238   C183.772934,756.118042 183.887604,762.002319 182.990234,766.899658   C182.518112,769.476379 182.874023,772.204773 182.818604,775.273438  z"/>
<path fill="#752003" opacity="1.000000" stroke="none" d=" M519.574097,718.966797   C519.983398,720.736755 521.784180,720.805969 522.913025,721.655701   C523.865051,722.372498 525.701355,723.677429 523.937012,724.656616   C520.130676,726.768921 523.475525,728.268372 524.203613,729.671143   C525.415344,732.005676 527.075439,730.400452 528.805115,729.858948   C534.713196,728.009644 538.090454,722.168213 544.303711,720.607849   C547.392578,719.832214 548.008179,715.241150 551.259460,713.821228   C552.821716,713.138977 554.193481,711.016968 556.026550,712.861938   C557.585938,714.431458 557.445007,716.630859 556.404846,718.404785   C554.915894,720.944214 553.105591,723.301453 551.348206,725.674011   C550.712524,726.532104 549.958496,727.206787 551.723145,727.965698   C553.008118,731.203552 552.012146,734.157166 550.827209,737.015991   C548.987610,741.454102 545.724854,739.159607 542.507202,738.561157   C540.367188,738.815918 539.733582,740.107849 539.233337,741.940979   C538.710083,742.255981 538.338684,742.288513 537.689575,742.282104   C536.431641,742.633179 535.438721,742.992920 534.237549,743.652344   C524.050171,745.389832 514.476257,748.830078 504.307709,749.261047   C501.530487,749.378662 500.071625,749.011658 501.542999,746.279724   C506.681305,736.739075 511.460510,726.934448 519.574097,718.966797  z"/>
<path fill="#6C901E" opacity="1.000000" stroke="none" d=" M475.590454,642.905884   C477.769592,646.118958 481.662964,647.571716 482.953766,651.583008   C473.650665,649.308411 464.192963,647.366028 454.790131,651.509888   C447.700714,654.633972 440.830536,658.263672 434.410828,662.630981   C426.445099,668.050049 417.575348,672.041748 408.163849,671.912476   C401.113190,671.815552 393.652039,670.684204 386.407410,667.907471   C387.941742,663.517334 391.992371,662.900940 395.774536,662.062988   C402.125580,660.655640 408.604218,660.950012 415.058502,660.998291   C421.051300,661.043152 426.011627,659.090332 430.763550,655.024780   C438.913727,648.051697 448.483337,643.613647 459.478790,642.940308   C461.277985,642.830139 463.120697,642.545776 464.827057,641.986938   C468.461853,640.796631 471.910706,640.705383 475.590454,642.905884  z"/>
<path fill="#752003" opacity="1.000000" stroke="none" d=" M351.196106,736.802979   C350.834412,736.996033 350.657623,737.028870 350.504883,736.982544   C347.924744,736.200806 339.649597,728.399048 338.833405,726.021057   C337.965881,723.493591 337.178711,721.809326 333.546936,722.960876   C329.855652,724.131348 326.439423,721.538208 323.090515,719.414246   C333.060425,718.710327 343.092499,719.094971 353.557251,719.991211   C354.932129,721.099854 355.939697,721.945679 357.825745,721.291260   C358.622528,721.248474 359.063538,721.339355 359.735291,721.747925   C362.021851,723.444763 364.720245,724.243469 365.341125,727.423401   C362.122284,728.874207 356.915863,728.445251 358.004791,734.417114   C358.185120,735.406067 358.170166,736.482971 359.387604,736.724548   C360.250305,736.895630 360.997437,736.451233 361.467834,735.696899   C365.275818,729.589966 364.725739,735.880554 365.952637,737.616882   C366.317627,740.636108 363.703217,740.571960 362.311859,741.975098   C361.985382,742.466980 362.001190,742.763367 362.402344,743.235229   C364.876373,745.833008 368.511688,745.986023 370.902924,748.680298   C371.096741,750.476929 371.023956,751.993591 371.337067,753.425903   C371.705841,755.112610 371.518982,756.261963 369.549011,755.631042   C367.242310,754.892212 365.757782,754.366882 366.155518,757.926880   C366.234711,758.635437 365.734955,763.207397 361.756836,760.699463   C359.944336,759.556763 359.700348,762.063538 359.055420,763.610413   C355.308105,766.332458 351.378082,763.872131 347.297821,764.239197   C345.244751,763.286255 348.206818,758.562866 343.429657,759.989685   C342.344330,760.313843 342.571136,755.058044 344.215729,753.863892   C345.902161,752.639343 347.672211,753.742859 349.403778,753.401855   C349.285980,751.520020 347.766785,751.541809 346.315186,751.030762   C345.819550,750.825562 345.660675,750.661621 345.260193,750.254944   C342.270538,750.331299 339.932404,749.179016 337.740906,747.787415   C336.284119,746.862305 335.044495,745.616150 337.668518,744.065247   C341.839294,743.882629 344.625122,746.690613 348.130463,747.657898   C351.864777,748.688293 355.521759,749.538574 359.612122,749.510315   C359.840759,749.520874 360.110718,749.587952 360.110718,749.587952   C360.110718,749.587952 360.044342,749.320984 359.795868,749.270935   C355.343872,748.086121 350.736023,747.620178 348.903137,742.361938   C349.690582,740.577332 351.176788,739.525635 350.994507,737.349854   C351.197296,736.804199 351.393951,736.607849 351.590057,736.410889   C351.786194,736.213867 351.720245,736.278809 351.196106,736.802979  z"/>
<path fill="#641703" opacity="1.000000" stroke="none" d=" M540.797119,737.326782   C542.178589,737.057739 543.399475,736.880676 544.482300,737.188782   C548.951477,738.460083 550.446411,737.518494 550.235535,732.613098   C550.155701,730.755920 551.447144,730.028625 551.948669,728.359985   C554.422546,726.276428 556.662109,723.299194 559.756470,727.114746   C560.308716,727.795715 561.229248,727.482605 562.025269,727.560303   C565.376160,727.887329 570.110474,726.799866 568.355713,733.099243   C568.263489,733.430420 569.157166,734.036255 569.801392,734.798584   C562.276794,738.331543 554.225708,740.299011 545.444946,741.034241   C543.220154,740.303345 540.654419,740.609009 540.797119,737.326782  z"/>
<path fill="#9FC6CC" opacity="1.000000" stroke="none" d=" M607.407654,545.423157   C611.845459,545.054199 614.751892,548.509033 618.538391,549.965576   C619.278748,550.250366 619.421448,550.969727 619.183716,551.628540   C615.996155,560.461243 613.228516,569.485168 607.664429,577.866272   C606.166382,575.143616 608.083008,572.947815 607.374695,570.449585   C607.373535,569.176819 607.518005,568.266602 607.663452,567.009216   C608.103088,561.153076 608.302612,555.644409 607.706787,549.726807   C607.646790,548.138123 607.523193,546.959473 607.407654,545.423157  z"/>
<path fill="#721D03" opacity="1.000000" stroke="none" d=" M579.756287,731.350952   C578.683350,730.844727 577.631958,730.346619 576.598633,729.813599   C576.009155,729.509460 575.370178,729.234558 574.890869,728.796265   C573.549927,727.569824 574.030457,725.996460 575.211853,725.432495   C578.924500,723.660278 578.271057,716.777771 583.542358,717.689697   C586.039673,718.121643 584.907104,721.699768 584.816406,723.933044   C584.685303,727.162659 580.782471,727.748840 579.930420,730.956421   C579.844971,731.340942 579.785400,731.344421 579.756287,731.350952  z"/>
<path fill="#641703" opacity="1.000000" stroke="none" d=" M347.003052,764.273193   C350.732758,761.723267 354.469574,764.137878 358.608215,763.963745   C362.399506,763.964966 365.782776,763.979980 369.632324,764.031982   C367.801819,766.297791 364.907135,765.967102 362.091888,765.909485   C357.281830,765.811035 352.472595,765.671753 347.328247,765.313904   C346.995270,764.899292 346.997040,764.720398 347.003052,764.273193  z"/>
<path fill="#0E3B48" opacity="1.000000" stroke="none" d=" M607.541992,549.793640   C610.440002,554.867920 609.108826,560.560913 608.017334,566.447510   C606.542114,561.219727 607.091370,555.741577 607.541992,549.793640  z"/>
<path fill="#641703" opacity="1.000000" stroke="none" d=" M296.571991,720.078186   C294.746918,723.720398 291.498505,721.608887 288.314514,721.307556   C290.551971,719.309814 293.431915,720.384583 296.571991,720.078186  z"/>
<path fill="#721D03" opacity="1.000000" stroke="none" d=" M540.727600,737.155518   C540.989746,739.636230 544.343445,738.345703 544.938843,740.673340   C545.014954,741.013245 545.002441,741.001831 545.007202,741.007812   C543.780701,742.262695 542.131287,741.871216 540.270264,742.207642   C539.893738,742.288635 539.482422,742.301636 539.281982,742.262573   C537.686035,740.074951 538.467407,738.524292 540.727600,737.155518  z"/>
<path fill="#7C2303" opacity="1.000000" stroke="none" d=" M358.013550,721.691772   C356.013397,723.757385 354.096069,725.258850 354.003784,720.398804   C354.747101,720.035217 355.490967,720.027893 356.604309,720.070251   C357.425537,720.464294 357.852722,720.828369 358.013550,721.691772  z"/>
<path fill="#641703" opacity="1.000000" stroke="none" d=" M358.344238,721.976807   C357.694031,721.540833 357.371826,721.107056 357.011719,720.396606   C358.394684,720.130737 359.815552,720.141541 361.649109,720.270142   C361.848022,721.176636 361.403595,721.737000 360.272583,721.940918   C359.546753,721.978760 359.109467,721.978882 358.344238,721.976807  z"/>
<path fill="#641703" opacity="1.000000" stroke="none" d=" M540.193054,742.466675   C540.953552,740.596619 542.665894,741.068909 544.611511,741.000427   C544.267456,743.669250 542.244751,742.782471 540.193054,742.466675  z"/>
<path fill="#641703" opacity="1.000000" stroke="none" d=" M534.330444,743.883911   C534.253784,742.308716 535.292175,741.958557 537.034302,742.177185   C536.885864,743.431213 535.983582,744.006836 534.330444,743.883911  z"/>
<path fill="#398229" opacity="1.000000" stroke="none" d=" M599.693726,601.723755   C598.993530,601.971191 598.330322,601.773438 597.998169,600.697998   C598.811829,600.278259 599.483887,600.425476 599.693726,601.723755  z"/>
<path fill="#6C901E" opacity="1.000000" stroke="none" d=" M483.197388,652.235229   C483.698639,652.303772 484.282135,652.655457 484.940857,653.265137   C484.107574,653.757874 483.524475,653.430420 483.197388,652.235229  z"/>
<path fill="#641703" opacity="1.000000" stroke="none" d=" M366.931091,720.839233   C366.859528,720.982422 366.677094,720.991455 366.221252,720.979126   C366.238647,720.873535 366.529449,720.789307 366.931091,720.839233  z"/>
<path fill="#DF7F0B" opacity="1.000000" stroke="none" d=" M383.020111,707.207275   C383.119324,706.999146 383.327911,707.011414 383.671997,707.160461   C383.811188,707.234131 383.504944,707.469482 383.504944,707.469482   C383.504944,707.469482 383.133209,707.364563 383.020111,707.207275  z"/>
<path fill="#398229" opacity="1.000000" stroke="none" d=" M596.612061,599.886963   C596.622559,600.026489 596.292603,599.899719 596.228027,599.847290   C596.163452,599.794800 596.364807,599.604858 596.364807,599.604858   C596.364807,599.604858 596.601501,599.747437 596.612061,599.886963  z"/>
<path fill="#A2CCD2" opacity="1.000000" stroke="none" d=" M751.923035,654.034851   C757.410278,651.922729 761.081543,654.371460 764.086792,658.012878   C767.282959,661.885620 770.183289,665.948120 768.025635,671.550293   C758.502380,696.276428 742.818604,715.366699 718.238586,726.425415   C714.758057,727.991394 711.335266,729.694763 707.945312,731.449707   C705.814819,732.552795 704.400208,732.183228 702.822021,730.274658   C696.898071,723.110657 691.235718,715.703125 684.547913,709.212158   C682.752136,707.469238 682.856812,706.096069 683.950439,704.026489   C689.314819,693.874817 696.778320,685.160889 705.395691,678.051208   C718.916687,666.895935 734.631592,659.168335 751.923035,654.034851  z"/>
<path fill="#FBD689" opacity="1.000000" stroke="none" d=" M429.571411,518.173828   C432.614777,519.723328 434.525024,522.041992 436.564819,524.187073   C438.047882,525.746704 438.464172,527.773132 437.626709,529.726807   C436.697815,531.893860 434.561646,532.103760 432.541473,531.913330   C426.582764,531.351685 422.185425,527.851868 418.201385,523.813171   C416.817780,522.410645 417.035522,520.464722 417.850677,518.674377   C418.670898,516.872925 420.386688,516.371155 421.977692,516.522888   C424.415344,516.755432 426.802399,517.518555 429.571411,518.173828  z"/>
<path fill="#FBD689" opacity="1.000000" stroke="none" d=" M444.278198,499.003967   C439.562500,496.781128 436.364624,493.484528 434.234985,489.223236   C432.606079,485.963898 434.402069,483.352783 438.035126,483.385498   C442.705292,483.427551 449.706787,488.129730 451.422516,492.541229   C452.219360,494.590118 452.612244,496.958679 451.083038,498.712067   C449.286835,500.771576 446.862305,500.063507 444.278198,499.003967  z"/>
<path fill="#FBD689" opacity="1.000000" stroke="none" d=" M537.116333,515.682495   C534.961365,513.236572 533.819214,510.608978 535.755005,508.235718   C537.567444,506.013641 540.308411,506.994446 542.697937,507.868896   C548.282043,509.912354 551.385132,514.339172 551.177307,519.857788   C551.106018,521.752075 550.971741,523.524597 548.902344,524.393494   C546.780579,525.284485 544.880249,524.668823 543.448303,523.160034   C541.289673,520.885681 539.380371,518.374756 537.116333,515.682495  z"/>
<path fill="#FBD689" opacity="1.000000" stroke="none" d=" M497.952667,487.036804   C504.820526,487.256134 508.594147,489.970367 510.591705,495.858490   C511.085358,497.313660 511.315491,498.756622 509.852692,499.899353   C508.110199,501.260559 506.312225,502.590668 504.032379,501.242371   C500.514130,499.161743 496.700378,497.482147 494.309479,493.849609   C493.215973,492.188293 491.497498,490.639801 492.273987,488.556488   C493.201111,486.069092 495.692841,487.359375 497.952667,487.036804  z"/>
<path fill="#FBD689" opacity="1.000000" stroke="none" d=" M382.662659,505.003815   C379.825958,505.959137 376.782104,507.557953 375.337860,504.355011   C374.015747,501.422974 374.698883,498.266144 377.534821,495.839783   C380.870941,492.985474 384.868805,492.116364 388.951508,491.370575   C390.928406,491.009460 391.966583,492.416321 392.869934,493.859192   C393.894897,495.496338 393.447113,496.907379 392.375732,498.429321   C390.032288,501.758240 385.914398,502.380280 382.662659,505.003815  z"/>
<path fill="#FBD689" opacity="1.000000" stroke="none" d=" M333.355530,521.592529   C330.506226,523.221252 327.924042,523.707642 325.976257,521.041748   C324.194305,518.602844 324.846191,515.999878 326.434418,513.666077   C328.330048,510.880524 330.881927,508.739197 333.908142,507.342499   C335.277374,506.710541 337.008636,505.499023 338.516968,506.908447   C339.946381,508.244141 339.994263,510.128876 339.613678,511.999786   C338.822784,515.887817 336.915009,519.057251 333.355530,521.592529  z"/>
<path fill="#FBD689" opacity="1.000000" stroke="none" d=" M362.178101,545.133179   C360.123108,546.572571 358.348175,547.298767 356.586334,545.370178   C355.086609,543.728455 354.671387,541.833130 355.845093,539.899292   C357.808746,536.663879 359.732635,533.273315 363.357025,531.620605   C365.181519,530.788513 367.573090,529.055115 369.182770,531.424133   C370.837769,533.859802 371.927460,536.770691 369.664398,539.715576   C367.767090,542.184570 364.896454,543.228149 362.178101,545.133179  z"/>
<path fill="#FBD689" opacity="1.000000" stroke="none" d=" M413.085571,539.482056   C417.057678,545.110168 416.576843,550.958801 412.328949,555.147339   C410.112701,557.332642 407.680725,557.697876 405.166931,556.190430   C402.544525,554.617920 402.681732,552.094971 403.821503,549.642761   C405.796875,545.392883 408.470306,541.706726 413.085571,539.482056  z"/>
<path fill="#FBD689" opacity="1.000000" stroke="none" d=" M475.281647,512.677368   C472.151672,512.804504 470.836517,510.406616 469.705353,508.398132   C468.704010,506.620178 468.511353,504.120667 470.117554,502.334381   C471.563354,500.726501 473.521973,501.373474 475.227661,502.052277   C480.258728,504.054352 484.122955,507.197998 484.911865,512.940613   C485.153839,514.701843 485.488678,516.739258 483.830994,518.046143   C481.993683,519.494629 480.404968,517.911743 478.810211,517.207092   C477.127838,516.463745 475.549683,515.546082 474.978546,513.270020   C476.291443,511.576080 478.157379,512.579651 479.812653,511.972534   C478.961761,509.786804 477.755127,508.418732 475.987152,507.400879   C474.576294,509.206360 476.315674,510.893372 475.281647,512.677368  z"/>
<path fill="#E06D16" opacity="1.000000" stroke="none" d=" M557.517822,558.537537   C557.474976,558.559998 557.560608,558.515076 557.517822,558.537537  z"/>
<path fill="#A1CBD2" opacity="1.000000" stroke="none" d=" M234.490692,477.063110   C234.686752,460.507568 238.793091,444.754944 244.923706,429.588928   C252.982086,409.653961 264.525055,391.745178 279.207245,376.065735   C297.904694,356.098236 320.244080,341.236816 345.664276,331.158936   C380.526642,317.337646 416.677094,311.639008 453.872314,317.223602   C500.924072,324.288055 542.609619,342.683411 574.803955,379.105438   C586.364258,392.183807 594.871399,407.232147 602.196472,422.998169   C603.606018,426.032013 603.339600,427.959137 600.352661,430.057861   C595.627563,433.377960 592.664490,438.216888 590.766235,443.707123   C590.369385,444.854858 590.850952,446.761444 589.203064,447.021240   C587.490173,447.291290 587.323242,445.391846 586.742676,444.308777   C579.465210,430.731934 570.643311,418.210419 559.886292,407.230560   C532.717773,379.499207 499.631409,362.982697 461.609497,355.666962   C431.535004,349.880371 401.668152,350.544830 371.848328,356.970337   C326.957336,366.643372 289.369263,388.244568 261.323822,425.196991   C249.828323,440.343323 242.374191,457.562653 236.012024,475.715637   C235.618866,476.501678 235.302383,476.867096 234.490692,477.063110  z"/>
<path fill="#ECECDD" opacity="1.000000" stroke="none" d=" M608.832520,442.436768   C609.444275,442.041473 609.763428,441.902313 610.344116,441.740479   C612.172058,440.969788 613.796021,440.892944 615.930786,441.468781   C617.063660,441.711670 617.727173,441.788666 618.701416,441.992859   C619.702881,442.665466 620.565918,442.415466 621.432434,442.907776   C623.135010,443.670715 624.340515,444.717346 625.649780,446.185547   C626.064148,446.474884 626.276550,446.484467 626.450195,446.810547   C626.553162,447.219574 626.694763,447.312103 626.943115,447.634735   C627.966248,449.048004 629.188049,450.094086 628.721069,452.191711   C627.363220,454.337280 626.016968,452.309631 624.509155,452.553986   C624.606689,456.384796 626.326477,457.022583 629.770996,455.382080   C631.857788,455.582520 632.656128,456.805847 633.294434,458.203644   C638.350464,469.275574 640.615234,481.007416 641.471802,493.060303   C641.660461,495.715332 640.723511,497.930878 637.963013,499.572083   C636.506348,500.215607 635.382446,500.289734 633.824341,500.082642   C632.889221,499.843201 632.388245,499.629822 631.576904,499.152771   C625.979858,493.250885 625.267700,485.731934 623.740967,478.739532   C622.088806,471.173157 619.489380,464.445801 613.438477,458.934143   C612.622131,458.021362 612.131104,457.292206 611.330505,456.417419   C610.921082,456.089966 610.754944,455.960205 610.333984,455.638184   C609.729126,455.181641 609.390808,454.902832 608.814575,454.372742   C608.262512,453.766113 608.005188,453.368164 607.650269,452.598877   C606.203064,448.888367 606.313416,445.677216 608.832520,442.436768  z"/>
<path fill="#9FC6CC" opacity="1.000000" stroke="none" d=" M636.871582,499.395477   C639.152039,497.551453 640.363342,495.684204 640.040161,492.842377   C638.754639,481.538177 637.975525,470.135193 632.832947,459.674225   C632.111938,458.207550 631.607727,456.548370 629.446899,455.948181   C627.952148,455.663361 627.487122,454.912750 627.771729,453.473572   C628.283813,451.528992 627.424805,450.136230 627.034912,448.255920   C634.747681,455.261078 637.088501,465.203644 639.742432,474.937378   C643.891174,490.153748 643.595337,505.549957 641.104370,520.987732   C641.024902,521.480408 640.987061,521.982544 640.871399,522.466309   C639.531250,528.071228 638.168274,533.994934 631.305176,535.007446   C624.337952,536.035400 619.580383,531.884460 616.221924,526.377075   C611.658813,518.894287 609.569702,510.484894 608.156860,501.904816   C607.699829,499.129150 607.229858,496.355652 606.881531,493.266449   C607.702759,493.087952 608.252869,493.505768 609.036621,494.191101   C609.412964,494.631134 609.545410,494.822357 609.827393,495.328705   C610.417542,496.941345 610.420532,498.377533 611.378418,499.880615   C613.119934,505.246857 613.187195,510.596222 615.301208,515.614075   C617.431763,520.671265 620.624878,524.803894 624.229919,528.661316   C627.960876,532.653503 632.354065,532.267700 634.116821,527.328491   C637.276489,518.475647 640.139404,509.345245 636.871582,499.395477  z"/>
<path fill="#9FC6CC" opacity="1.000000" stroke="none" d=" M608.769531,442.142761   C609.150269,445.565918 606.821960,448.905548 608.971313,452.729675   C607.711914,453.453125 605.941833,452.425842 606.463745,455.616516   C607.281189,460.613922 606.661499,465.809784 606.700806,471.304962   C606.329346,473.302704 606.551270,474.868774 607.185608,476.821106   C607.529724,478.377533 607.612366,479.534424 607.495728,481.145996   C607.307068,482.502228 607.070312,483.370087 606.072571,484.333191   C602.167908,472.573547 601.438660,460.400391 603.660767,448.104584   C604.142639,445.438202 605.592896,443.123444 608.769531,442.142761  z"/>
<path fill="#9FC6CC" opacity="1.000000" stroke="none" d=" M233.901154,477.302673   C234.538498,476.749878 234.955307,476.496765 235.590561,476.135254   C235.433777,480.207184 234.397858,484.214050 232.507217,488.030182   C233.063492,484.564423 232.399368,480.987946 233.901154,477.302673  z"/>
<path fill="#ECECDD" opacity="1.000000" stroke="none" d=" M609.387634,494.523956   C608.266663,494.709259 607.528259,494.426941 607.131775,493.230530   C606.942871,492.574677 606.888550,492.197571 606.857056,491.534729   C606.797302,490.957733 606.714661,490.666504 606.937744,490.037781   C610.735352,489.727692 610.262329,491.920471 609.387634,494.523956  z"/>
<path fill="#9FC6CC" opacity="1.000000" stroke="none" d=" M616.196838,441.384796   C614.787415,441.733765 613.174683,441.832855 611.083740,441.824890   C612.231934,439.955658 614.121094,440.622681 616.196838,441.384796  z"/>
<path fill="#A2CCD2" opacity="1.000000" stroke="none" d=" M605.621094,484.909546   C605.791443,483.650024 605.900146,482.728149 606.026367,481.343140   C609.198730,482.088837 608.533020,484.525421 607.750000,487.313751   C607.267029,487.880188 607.020264,488.056702 606.337402,488.103455   C605.787231,487.064819 605.673279,486.156006 605.621094,484.909546  z"/>
<path fill="#9FC6CC" opacity="1.000000" stroke="none" d=" M605.778625,488.208801   C605.901245,487.973663 606.363586,487.982880 606.594666,487.989380   C607.271179,488.352570 607.485901,488.816162 607.301758,489.751190   C607.125427,490.312073 607.117371,490.508301 606.994629,490.976746   C605.925171,490.552582 605.564453,489.596924 605.778625,488.208801  z"/>
<path fill="#9FC6CC" opacity="1.000000" stroke="none" d=" M621.376160,442.941956   C620.800232,442.998627 620.065796,442.803589 619.171692,442.364288   C619.747253,442.310089 620.482422,442.500183 621.376160,442.941956  z"/>
<path fill="#9FC6CC" opacity="1.000000" stroke="none" d=" M626.431763,446.946899   C626.149963,447.153656 625.966003,447.046631 625.855713,446.635681   C626.134644,446.400940 626.334717,446.501434 626.431763,446.946899  z"/>
<path fill="#8C3402" opacity="1.000000" stroke="none" d=" M355.017151,611.110413   C340.420929,612.208252 326.325409,612.045227 312.214172,611.105469   C294.446716,609.922241 276.803955,608.317993 260.215240,601.013428   C252.776093,597.737793 247.011368,592.802185 243.236145,585.570251   C241.617569,582.469788 241.094589,579.446228 244.326019,577.133179   C247.438232,574.905396 249.322556,577.592957 250.965179,579.489319   C261.064606,591.149292 275.268341,594.045227 289.193634,597.027588   C316.259003,602.824158 343.808472,600.655090 371.190247,601.067932   C373.868530,601.108337 376.475647,601.349792 379.090271,601.929626   C380.736755,602.294800 382.580933,602.260010 382.897369,604.402222   C383.255402,606.825806 381.201935,607.410828 379.592010,608.158936   C374.489258,610.530090 368.878235,610.159973 363.488159,610.940491   C360.875366,611.318909 358.171906,611.071289 355.017151,611.110413  z"/>
<path fill="#FBD689" opacity="1.000000" stroke="none" d=" M291.438171,529.304443   C294.032898,529.602478 295.112335,530.420166 294.341003,532.954773   C292.571045,538.770996 286.038177,542.027100 280.408386,539.641052   C278.681305,538.909119 277.251068,537.786499 277.102692,535.666443   C276.948730,533.466614 278.406769,532.442627 280.057159,531.508972   C283.480042,529.572632 287.106537,528.702454 291.438171,529.304443  z"/>
<path fill="#8C3402" opacity="1.000000" stroke="none" d=" M356.970825,808.839722   C362.127289,808.750000 366.778595,808.825928 371.333710,809.991150   C373.117493,810.447388 374.992035,810.849487 375.109711,813.262390   C375.237762,815.887085 373.214600,815.933350 371.454468,816.415710   C363.342346,818.638733 354.946289,817.999084 346.699280,818.732117   C333.307526,819.922485 319.836914,820.706970 306.397644,820.735535   C294.731781,820.760376 283.209595,818.975464 272.928467,812.601990   C268.227814,809.688049 264.868652,805.724670 262.743408,800.662354   C262.270477,799.535828 261.945404,798.350037 263.173737,797.537109   C264.244446,796.828613 264.984619,797.774841 265.791840,798.323730   C277.076874,805.997925 290.061523,807.644226 303.175079,809.091614   C320.969208,811.055542 338.711761,809.053101 356.970825,808.839722  z"/>
<path fill="#F7C15A" opacity="1.000000" stroke="none" d=" M474.390991,713.718079   C480.539429,711.194214 484.324524,706.516541 488.056671,701.835938   C489.486359,700.042969 490.881989,698.265198 493.362305,699.125305   C495.964844,700.027832 495.263611,702.627258 494.882843,704.313904   C492.527191,714.748352 488.872406,724.670166 481.636719,732.831177   C478.591400,736.265930 474.511993,735.884277 471.100311,733.896240   C461.810486,728.482788 452.753510,722.667664 443.651520,716.936707   C442.553833,716.245605 441.685852,715.145569 440.821045,714.140686   C439.877228,713.044067 439.632660,711.709900 440.383698,710.434326   C441.272003,708.925476 442.603485,709.465515 443.921600,709.834595   C450.460968,711.665527 456.891968,713.826538 463.737762,714.548645   C467.297424,714.924194 470.655914,715.053894 474.390991,713.718079  z"/>
<path fill="#721D03" opacity="1.000000" stroke="none" d=" M567.198853,713.274658   C567.695862,712.783142 567.889709,712.471130 568.169800,712.328491   C569.881897,711.456787 570.046448,707.683533 572.174133,708.820862   C574.271057,709.941895 574.418030,713.122925 573.814392,715.591187   C573.153137,718.295227 570.822876,719.026917 568.392639,718.829529   C566.151001,718.647522 563.947815,717.990417 560.899475,717.375549   C563.294861,715.850464 565.115234,714.691467 567.198853,713.274658  z"/>
<path fill="#641703" opacity="1.000000" stroke="none" d=" M371.422546,749.002808   C367.677216,747.822083 364.030670,747.298950 361.305115,744.158508   C360.575073,743.598267 360.212799,743.155640 360.028870,742.288208   C361.045929,739.531067 364.015015,740.143188 365.792236,738.247070   C367.603149,738.060852 368.941925,737.985352 370.220856,739.708923   C373.483124,744.105530 377.538055,747.685181 384.490601,748.525269   C379.509216,751.337280 375.651367,749.177979 371.422546,749.002808  z"/>
<path fill="#8C3402" opacity="1.000000" stroke="none" d=" M305.127106,746.326050   C304.694366,742.699707 306.227295,740.839111 309.299377,742.465088   C312.173859,743.986694 314.147552,742.958801 316.675354,742.004578   C319.718506,740.855774 323.491760,738.783325 325.005859,744.605164   C325.115601,747.443298 323.720612,748.856934 321.345154,749.861328   C320.251556,750.215454 319.516602,750.571533 318.757996,750.866821   C316.093750,751.904114 315.461975,757.691650 311.075195,754.459534   C308.443481,752.520325 306.079712,750.082642 305.127106,746.326050  z"/>
<path fill="#561003" opacity="1.000000" stroke="none" d=" M291.232788,754.829468   C289.493927,752.644897 287.205109,750.909729 288.671478,748.099487   C289.839020,745.861877 292.133667,745.772095 294.331787,746.121826   C295.069824,746.239197 296.187256,746.724304 296.347687,747.271240   C297.361816,750.727661 299.846863,753.166565 301.895996,755.922913   C302.553314,756.807129 303.315704,758.010986 302.524231,759.112610   C301.801880,760.118042 300.706238,759.109314 299.790924,759.156738   C296.247437,759.340698 293.295380,758.425720 291.232788,754.829468  z"/>
<path fill="#561003" opacity="1.000000" stroke="none" d=" M280.343536,751.582581   C282.070435,753.916504 285.399445,756.311768 284.026703,758.227966   C282.456451,760.419861 279.274933,757.704773 276.837677,757.046204   C273.037872,756.019531 271.975983,752.423401 270.367493,749.438538   C269.745270,748.283813 270.233398,746.990906 271.418579,746.520447   C273.452759,745.712830 275.678864,745.375610 277.374908,747.199768   C278.480042,748.388367 279.233856,749.903748 280.343536,751.582581  z"/>
<path fill="#752003" opacity="1.000000" stroke="none" d=" M321.037598,750.235352   C322.165680,748.384644 323.333984,746.881958 324.759766,745.190796   C328.593964,749.061096 334.444458,749.276978 338.329285,752.868958   C339.079926,753.562988 340.124786,753.960632 339.561798,755.122925   C339.149719,755.973694 338.121246,755.530640 337.386017,755.704712   C334.652771,756.351685 331.732178,754.126038 329.071045,756.631592   C328.414917,756.485291 327.834686,756.001953 327.127228,755.259338   C326.776520,753.631653 325.743408,753.371460 324.301025,753.128418   C322.448761,752.888550 321.380798,752.196716 321.037598,750.235352  z"/>
<path fill="#721D03" opacity="1.000000" stroke="none" d=" M324.146027,753.286255   C325.164490,752.677063 325.903534,750.882324 327.261902,751.620117   C328.394775,752.235535 328.051544,753.511658 327.242462,754.774902   C325.866791,754.960938 324.937347,754.537476 324.146027,753.286255  z"/>
<path fill="#641703" opacity="1.000000" stroke="none" d=" M361.262207,750.796143   C352.760590,751.374878 345.200745,749.481689 338.306335,744.167847   C341.195557,736.277588 342.701202,735.938782 348.689209,741.830444   C351.842194,745.683838 355.909515,747.037109 360.613068,747.953369   C361.950043,748.706909 362.869659,749.416809 361.262207,750.796143  z"/>
<path fill="#641703" opacity="1.000000" stroke="none" d=" M345.131958,750.216919   C345.314758,750.134827 345.559662,750.323792 345.865906,750.784302   C345.683350,750.865723 345.438995,750.676453 345.131958,750.216919  z"/>
<path fill="#721D03" opacity="1.000000" stroke="none" d=" M361.350342,750.997192   C361.343811,750.186401 361.773773,749.381775 361.093750,748.250854   C362.412994,748.270447 364.255371,748.351013 364.235107,750.189514   C364.223267,751.265564 362.632050,750.878296 361.350342,750.997192  z"/>
<path fill="#721D03" opacity="1.000000" stroke="none" d=" M346.651611,722.579590   C347.380127,722.376160 347.644867,722.630554 347.531494,723.196655   C347.507965,723.314148 347.341095,723.471985 347.222260,723.489685   C346.650848,723.574463 346.411346,723.296448 346.651611,722.579590  z"/>
<path fill="#721D03" opacity="1.000000" stroke="none" d=" M359.794067,742.180298   C360.316467,742.470459 360.630615,742.940979 360.973602,743.704468   C360.124237,743.803284 359.013763,743.809998 359.794067,742.180298  z"/>
<path fill="#721D03" opacity="1.000000" stroke="none" d=" M351.269745,736.958862   C351.291748,736.514221 351.583435,736.028442 351.875092,735.542664   C352.071777,735.710815 352.268463,735.878967 352.465179,736.047119   C352.156616,736.337341 351.848053,736.627563 351.269745,736.958862  z"/>
<path fill="#7C2303" opacity="1.000000" stroke="none" d=" M351.808533,731.249573   C352.709534,731.150452 353.598907,731.127258 353.430115,732.222168   C353.412903,732.333801 352.714752,732.340454 352.165680,732.197937   C351.871216,731.833069 351.743652,731.666077 351.808533,731.249573  z"/>
<path fill="#721D03" opacity="1.000000" stroke="none" d=" M351.834045,730.802124   C352.000641,731.166687 352.000336,731.333313 351.999390,731.750000   C351.290558,731.849182 350.401245,731.872253 350.569885,730.777710   C350.587067,730.666138 351.285065,730.659546 351.834045,730.802124  z"/>
<path fill="#13404D" opacity="1.000000" stroke="none" d=" M739.086304,691.012085   C731.848022,689.351318 728.826355,682.838684 732.373901,676.952087   C735.821472,671.231812 741.102295,667.880737 747.620911,666.783081   C753.283386,665.829712 757.126953,670.305176 755.874146,676.014038   C754.447449,682.515320 746.469849,689.818726 739.086304,691.012085  z"/>
<path fill="#000000" opacity="1.000000" stroke="none" d=" M475.045868,512.971252   C474.651550,511.749725 474.439606,510.390961 473.738098,509.367859   C472.766541,507.951019 472.490814,506.434692 473.545990,505.331329   C474.651031,504.175873 475.981079,505.502380 477.094299,506.007843   C479.491974,507.096558 480.191315,509.777527 481.873779,511.571014   C482.366669,512.096436 482.076172,514.142883 481.439240,514.741028   C480.660553,515.472351 479.253693,515.053955 478.457062,513.938538   C477.805573,513.026367 476.853333,512.876892 475.428497,512.939209   C475.034821,512.911560 475.009918,512.983704 475.045868,512.971252  z"/>
<path fill="#FAF1DF" opacity="1.000000" stroke="none" d=" M470.179321,327.889099   C481.185028,328.346405 490.544128,332.933533 500.085602,336.689453   C513.757446,342.071289 526.639587,349.010864 538.569824,357.668457   C540.749939,359.250549 542.705139,361.012695 544.541626,362.939697   C546.771240,365.279144 546.312561,367.812286 544.849121,370.283264   C543.399902,372.730194 541.301392,373.413086 538.452515,372.790680   C530.546143,371.063171 524.500122,365.889221 517.841064,361.885010   C500.534668,351.478363 482.151398,344.163147 461.936829,342.039154   C458.481293,341.676117 455.623016,339.930084 452.638275,338.581635   C449.712006,337.259644 449.109680,334.796265 451.417603,332.071381   C456.485260,326.088135 462.939514,326.269257 470.179321,327.889099  z"/>
<path fill="#FAF1DF" opacity="1.000000" stroke="none" d=" M569.818237,405.283142   C565.153870,400.294250 560.714417,395.594818 556.357971,390.819702   C554.791809,389.102966 553.513916,387.151825 552.819397,384.884277   C551.991516,382.181580 550.645081,378.992615 553.116211,376.972717   C555.684814,374.873199 559.059875,375.702576 562.059448,377.071411   C565.700684,378.733124 567.763123,382.063416 570.284302,384.871765   C574.155640,389.184052 577.858032,393.640839 580.900940,398.617645   C582.734314,401.616241 584.510559,404.891205 581.139954,407.466858   C577.989319,409.874359 574.244690,409.531708 571.137146,406.594727   C570.775208,406.252686 570.429260,405.893768 569.818237,405.283142  z"/>
<path fill="#000000" opacity="1.000000" stroke="none" d=" M586.899414,439.669250   C585.809875,435.373077 583.711365,431.482574 588.794312,428.356262   C590.575867,427.260468 591.270203,424.396973 592.682007,421.959015   C593.419434,424.861328 592.191467,427.694550 594.740173,429.682617   C595.409729,430.204895 595.455383,432.186249 594.366394,432.778748   C591.492798,434.342316 591.129883,437.323303 590.056274,439.843872   C588.988586,442.350403 588.162231,442.061646 586.899414,439.669250  z"/>
<path fill="#000000" opacity="1.000000" stroke="none" d=" M591.018921,418.511292   C591.276489,417.133392 590.371277,415.780090 591.831787,415.194366   C592.072937,415.097656 592.849304,415.577362 592.885620,415.855072   C593.073608,417.293030 593.346130,418.849152 591.492249,419.535736   C591.432007,419.558014 591.281982,419.433655 591.224304,419.344879   C591.137329,419.210938 591.094849,419.048096 591.018921,418.511292  z"/>
<path fill="#000000" opacity="1.000000" stroke="none" d=" M607.523743,490.062927   C607.068848,489.645569 607.004272,489.175323 606.882812,488.350464   C606.823364,485.736969 606.820984,483.478027 606.431274,481.049561   C606.032227,479.837708 606.020569,478.795441 605.942810,477.367615   C605.148987,475.560486 605.705322,474.011658 605.235840,472.226807   C605.034790,464.469635 605.034790,457.030151 605.034790,449.516541   C607.098999,449.818054 606.127991,452.866669 608.632935,453.078857   C609.046265,453.442657 609.195618,453.684784 609.671997,453.922089   C610.143433,454.208710 610.401306,454.432312 610.822876,454.854095   C610.991150,455.046967 611.003784,454.998566 610.980225,455.006866   C611.514465,455.516449 612.048340,456.044250 612.869751,456.664978   C622.309265,462.987488 623.867798,472.832703 626.401978,482.601166   C627.661743,487.457062 627.348572,493.348694 631.983276,497.505798   C632.231689,498.176270 632.408142,498.448334 632.912231,498.764282   C634.154785,498.906616 635.176941,498.935425 636.580139,499.000397   C639.152832,500.444031 640.186401,502.192505 640.048889,505.048462   C639.695190,512.393982 638.382385,519.625793 636.591431,526.648865   C636.097778,528.584656 634.948120,532.502686 631.008606,533.005737   C625.839111,533.665894 623.378906,530.272400 620.500000,527.062805   C613.724243,519.508789 611.501160,510.246613 609.989380,500.208313   C609.201965,498.428711 609.678101,496.950287 609.278809,495.214417   C609.116455,494.892365 609.082397,494.912415 609.086548,494.894928   C608.238220,493.366211 610.295349,491.151642 607.523743,490.062927  z"/>
<path fill="#000000" opacity="1.000000" stroke="none" d=" M627.671509,452.991394   C627.841675,454.057190 627.920959,454.864655 628.946167,455.655090   C628.980164,457.516083 628.397217,459.289581 626.669495,458.770691   C625.265625,458.349060 623.025208,457.936554 623.030945,455.525543   C623.033630,454.380127 623.122314,453.221893 622.982178,452.093048   C622.856689,451.081543 621.811768,449.783295 623.408875,449.395966   C623.941284,449.266846 625.506409,449.619354 625.982056,450.917542   C626.240723,451.623505 626.889648,452.186554 627.671509,452.991394  z"/>
<path fill="#9FC6CC" opacity="1.000000" stroke="none" d=" M613.049683,456.491516   C612.168152,456.938263 611.016785,457.494965 610.966797,455.392029   C611.890259,454.952057 612.658020,455.179657 613.049683,456.491516  z"/>
<path fill="#9FC6CC" opacity="1.000000" stroke="none" d=" M632.986084,498.689972   C632.752563,498.750946 632.372498,498.624115 632.077515,498.165955   C632.424988,498.019836 632.650635,498.242340 632.986084,498.689972  z"/>
<path fill="#9FC6CC" opacity="1.000000" stroke="none" d=" M610.902832,454.785583   C610.676147,454.874420 610.361084,454.701874 609.963867,454.259460   C610.192627,454.167755 610.503540,454.345978 610.902832,454.785583  z"/>
<path fill="#ECECDD" opacity="1.000000" stroke="none" d=" M609.063293,495.263184   C610.916931,495.974976 609.562073,497.690765 609.890076,499.431854   C608.742981,498.575409 609.190247,497.043243 609.063293,495.263184  z"/>
<path fill="#A2CCD2" opacity="1.000000" stroke="none" d=" M605.024170,472.294342   C607.047974,472.948181 605.624329,474.776154 605.946777,476.584656   C604.639160,475.738464 605.102295,474.153656 605.024170,472.294342  z"/>
</svg>